<svg width="319" height="148" viewBox="0 0 319 148" fill="none" xmlns="http://www.w3.org/2000/svg">
<path d="M130.784 113.552L130.77 113.56L69.182 147.863L1.74127 114.134L0.579102 113.552L4.07923 43.5318L64.9816 0.118866L65.6537 0.539143L128.684 40.0308L130.784 113.552Z" fill="#8A63FF"/>
<path opacity="0.3" d="M130.77 113.56L69.182 147.863L1.74127 114.134L61.4814 72.2405L130.77 113.56Z" fill="black"/>
<path opacity="0.1" d="M130.784 113.553L61.4814 72.2406L65.6537 0.539154L128.684 40.0308L130.784 113.553Z" fill="black"/>
<path d="M3.18272 65.1384L2.84045 64.6538L64.4226 21.1753L129.476 61.972L129.161 62.4749L64.4418 21.8877L3.18272 65.1384Z" fill="#F2F2F2"/>
<path d="M1.98903 88.9265L1.65613 88.4359L62.9258 46.8276L63.0863 46.9187L129.53 84.5861L129.238 85.1022L62.9539 47.5255L1.98903 88.9265Z" fill="#F2F2F2"/>
<path d="M25.3665 126.123L25.054 125.619L86.8035 87.3467V13.9765H87.3965V87.6771L25.3665 126.123Z" fill="#F2F2F2"/>
<path d="M49.6031 138.243L49.288 137.741L108.746 100.438V27.7239H109.339V100.767L49.6031 138.243Z" fill="#F2F2F2"/>
<path d="M108.522 126.131L39.3721 87.7001L39.3819 87.5153L43.022 15.5465L43.6142 15.5767L39.9834 87.3608L108.81 125.612L108.522 126.131Z" fill="#F2F2F2"/>
<path d="M86.766 138.255L18.3931 102.415L18.4037 102.225L22.4343 30.2205L23.0264 30.2537L19.0069 102.067L87.0415 137.729L86.766 138.255Z" fill="#F2F2F2"/>
<path d="M180.77 64.3496H175.908V48.5039L167.354 63.5518C167.144 63.9352 166.847 64.2259 166.464 64.4238C166.093 64.6217 165.691 64.7207 165.258 64.7207C164.837 64.7207 164.441 64.6217 164.07 64.4238C163.712 64.2259 163.427 63.9352 163.217 63.5518L154.626 48.5039V64.3496H149.802V39.8018C149.802 39.2451 149.963 38.7503 150.284 38.3174C150.618 37.8844 151.051 37.5938 151.583 37.4453C151.843 37.3835 152.103 37.3649 152.362 37.3896C152.622 37.402 152.869 37.4577 153.104 37.5566C153.352 37.6432 153.575 37.7731 153.772 37.9463C153.97 38.1071 154.137 38.305 154.273 38.54L165.258 57.6328L176.242 38.54C176.527 38.07 176.916 37.736 177.411 37.5381C177.918 37.3402 178.444 37.3092 178.988 37.4453C179.508 37.5938 179.935 37.8844 180.269 38.3174C180.603 38.7503 180.77 39.2451 180.77 39.8018V64.3496ZM214.316 53.5879C214.316 55.2083 214.038 56.6989 213.481 58.0596C212.925 59.4202 212.152 60.5954 211.162 61.585C210.173 62.5745 208.997 63.3477 207.637 63.9043C206.288 64.4486 204.816 64.7207 203.221 64.7207H196.689C195.094 64.7207 193.616 64.4486 192.255 63.9043C190.894 63.3477 189.719 62.5745 188.729 61.585C187.74 60.5954 186.961 59.4202 186.392 58.0596C185.835 56.6989 185.557 55.2083 185.557 53.5879V48.5039C185.557 46.8958 185.835 45.4115 186.392 44.0508C186.961 42.6777 187.74 41.5026 188.729 40.5254C189.719 39.5358 190.894 38.7627 192.255 38.2061C193.616 37.6494 195.094 37.3711 196.689 37.3711H203.221C204.816 37.3711 206.288 37.6494 207.637 38.2061C208.997 38.7627 210.173 39.5358 211.162 40.5254C212.152 41.5026 212.925 42.6777 213.481 44.0508C214.038 45.4115 214.316 46.8958 214.316 48.5039V53.5879ZM209.492 48.5039C209.492 47.5514 209.338 46.6917 209.028 45.9248C208.731 45.1455 208.305 44.4837 207.748 43.9395C207.204 43.3828 206.542 42.9561 205.763 42.6592C204.996 42.3499 204.148 42.1953 203.221 42.1953H196.689C195.749 42.1953 194.89 42.3499 194.11 42.6592C193.343 42.9561 192.682 43.3828 192.125 43.9395C191.568 44.4837 191.135 45.1455 190.826 45.9248C190.529 46.6917 190.381 47.5514 190.381 48.5039V53.5879C190.381 54.5404 190.529 55.4062 190.826 56.1855C191.135 56.9525 191.568 57.6143 192.125 58.1709C192.682 58.7152 193.343 59.1419 194.11 59.4512C194.89 59.748 195.749 59.8965 196.689 59.8965H203.184C204.124 59.8965 204.977 59.748 205.744 59.4512C206.523 59.1419 207.191 58.7152 207.748 58.1709C208.305 57.6143 208.731 56.9525 209.028 56.1855C209.338 55.4062 209.492 54.5404 209.492 53.5879V48.5039ZM245.674 62.29C245.674 62.6364 245.606 62.958 245.47 63.2549C245.346 63.5518 245.173 63.8115 244.95 64.0342C244.74 64.2445 244.486 64.4115 244.189 64.5352C243.893 64.6589 243.577 64.7207 243.243 64.7207C242.946 64.7207 242.643 64.665 242.334 64.5537C242.037 64.4424 241.771 64.263 241.536 64.0156L223.909 45.6094V64.3496H219.085V39.8018C219.085 39.307 219.221 38.8617 219.493 38.4658C219.778 38.0576 220.136 37.7546 220.569 37.5566C221.027 37.3711 221.497 37.3278 221.979 37.4268C222.462 37.5133 222.876 37.736 223.223 38.0947L240.85 56.4824V37.7422H245.674V62.29ZM273.172 53.4766H257.938V48.6152H273.172V53.4766ZM275.343 64.3496H257.938C257.271 64.3496 256.541 64.2321 255.749 63.9971C254.957 63.762 254.221 63.3786 253.541 62.8467C252.873 62.3024 252.31 61.6035 251.853 60.75C251.407 59.8841 251.185 58.8265 251.185 57.5771V40.1729C251.185 39.8389 251.246 39.5234 251.37 39.2266C251.494 38.9297 251.661 38.6699 251.871 38.4473C252.094 38.2246 252.354 38.0514 252.65 37.9277C252.947 37.804 253.269 37.7422 253.615 37.7422H275.343V42.5664H256.009V57.5771C256.009 58.208 256.176 58.6904 256.51 59.0244C256.844 59.3584 257.332 59.5254 257.976 59.5254H275.343V64.3496ZM305.364 46.6484C305.364 47.7493 305.222 48.7327 304.938 49.5986C304.665 50.4645 304.3 51.2314 303.843 51.8994C303.385 52.555 302.847 53.1178 302.229 53.5879C301.622 54.0579 300.992 54.4476 300.336 54.7568C299.68 55.0537 299.012 55.2702 298.332 55.4062C297.664 55.5423 297.033 55.6104 296.439 55.6104H294.491V64.3496H289.63V55.6104H287.7C287.106 55.6104 286.469 55.5423 285.789 55.4062C285.121 55.2702 284.453 55.0537 283.785 54.7568C283.13 54.4476 282.499 54.0579 281.893 53.5879C281.286 53.1178 280.748 52.555 280.278 51.8994C279.821 51.2314 279.45 50.4645 279.165 49.5986C278.893 48.7204 278.757 47.737 278.757 46.6484V37.7422H283.581V46.6484C283.581 47.2793 283.68 47.8483 283.878 48.3555C284.076 48.8503 284.354 49.277 284.713 49.6357C285.072 49.9945 285.505 50.2728 286.012 50.4707C286.531 50.6562 287.106 50.749 287.737 50.749H296.439C296.897 50.6748 297.367 50.582 297.85 50.4707C298.332 50.347 298.771 50.1429 299.167 49.8584C299.563 49.5739 299.891 49.1781 300.15 48.6709C300.41 48.1637 300.54 47.4896 300.54 46.6484V37.7422H305.364V46.6484ZM176.354 106.505C176.354 107.099 176.248 107.736 176.038 108.416C175.84 109.096 175.506 109.727 175.036 110.309C174.578 110.89 173.979 111.379 173.236 111.774C172.494 112.158 171.585 112.35 170.509 112.35H152.195C151.849 112.35 151.527 112.288 151.23 112.164C150.934 112.04 150.674 111.873 150.451 111.663C150.241 111.44 150.074 111.181 149.95 110.884C149.826 110.587 149.765 110.265 149.765 109.919V88.1729C149.765 87.8389 149.826 87.5234 149.95 87.2266C150.074 86.9297 150.241 86.6699 150.451 86.4473C150.674 86.2246 150.934 86.0514 151.23 85.9277C151.527 85.804 151.849 85.7422 152.195 85.7422H168.338C168.932 85.7422 169.569 85.8473 170.249 86.0576C170.929 86.2679 171.56 86.6081 172.142 87.0781C172.735 87.5358 173.224 88.1357 173.607 88.8779C174.003 89.6201 174.201 90.5293 174.201 91.6055V92.5146C174.201 93.3682 174.059 94.2897 173.774 95.2793C173.49 96.2565 173.032 97.1842 172.401 98.0625C172.946 98.3965 173.453 98.7985 173.923 99.2686C174.405 99.7386 174.826 100.283 175.185 100.901C175.543 101.52 175.828 102.219 176.038 102.998C176.248 103.777 176.354 104.637 176.354 105.577V106.505ZM171.529 105.577C171.529 104.946 171.43 104.383 171.232 103.889C171.035 103.382 170.756 102.949 170.397 102.59C170.039 102.231 169.606 101.959 169.099 101.773C168.591 101.576 168.022 101.477 167.392 101.477H156.519V96.6152H165.221C165.852 96.6152 166.421 96.5225 166.928 96.3369C167.435 96.139 167.868 95.8607 168.227 95.502C168.585 95.1432 168.857 94.7165 169.043 94.2217C169.241 93.7145 169.34 93.1455 169.34 92.5146V91.6055C169.34 90.9128 169.006 90.5664 168.338 90.5664H154.589V107.525H170.509C170.595 107.525 170.701 107.519 170.824 107.507C170.948 107.494 171.059 107.457 171.158 107.396C171.257 107.334 171.344 107.229 171.418 107.08C171.492 106.932 171.529 106.728 171.529 106.468V105.577ZM208.49 101.588C208.49 103.208 208.212 104.699 207.655 106.06C207.099 107.42 206.326 108.595 205.336 109.585C204.346 110.575 203.171 111.348 201.811 111.904C200.462 112.449 198.99 112.721 197.395 112.721H190.863C189.268 112.721 187.789 112.449 186.429 111.904C185.068 111.348 183.893 110.575 182.903 109.585C181.914 108.595 181.134 107.42 180.565 106.06C180.009 104.699 179.73 103.208 179.73 101.588V96.5039C179.73 94.8958 180.009 93.4115 180.565 92.0508C181.134 90.6777 181.914 89.5026 182.903 88.5254C183.893 87.5358 185.068 86.7627 186.429 86.2061C187.789 85.6494 189.268 85.3711 190.863 85.3711H197.395C198.99 85.3711 200.462 85.6494 201.811 86.2061C203.171 86.7627 204.346 87.5358 205.336 88.5254C206.326 89.5026 207.099 90.6777 207.655 92.0508C208.212 93.4115 208.49 94.8958 208.49 96.5039V101.588ZM203.666 96.5039C203.666 95.5514 203.511 94.6917 203.202 93.9248C202.905 93.1455 202.479 92.4837 201.922 91.9395C201.378 91.3828 200.716 90.9561 199.937 90.6592C199.17 90.3499 198.322 90.1953 197.395 90.1953H190.863C189.923 90.1953 189.063 90.3499 188.284 90.6592C187.517 90.9561 186.855 91.3828 186.299 91.9395C185.742 92.4837 185.309 93.1455 185 93.9248C184.703 94.6917 184.555 95.5514 184.555 96.5039V101.588C184.555 102.54 184.703 103.406 185 104.186C185.309 104.952 185.742 105.614 186.299 106.171C186.855 106.715 187.517 107.142 188.284 107.451C189.063 107.748 189.923 107.896 190.863 107.896H197.357C198.298 107.896 199.151 107.748 199.918 107.451C200.697 107.142 201.365 106.715 201.922 106.171C202.479 105.614 202.905 104.952 203.202 104.186C203.511 103.406 203.666 102.54 203.666 101.588V96.5039ZM224.707 95.2422L232.834 85.7422H239.421L227.973 99.083L239.347 112.35H232.797L224.707 102.924L216.654 112.35H210.086L221.441 99.083L210.049 85.7422H216.58L224.707 95.2422Z" fill="black"/>
</svg>
